grf
version=1
nRows=11
nColumns=37
inDegrees=no
endheader
time	ground_force_1_vx	ground_force_1_vy	ground_force_1_vz	ground_force_1_px	ground_force_1_py	ground_force_1_pz	ground_moment_1_mx	ground_moment_1_my	ground_moment_1_mz	ground_force_2_vx	ground_force_2_vy	ground_force_2_vz	ground_force_2_px	ground_force_2_py	ground_force_2_pz	ground_moment_2_mx	ground_moment_2_my	ground_moment_2_mz	ground_force_3_vx	ground_force_3_vy	ground_force_3_vz	ground_force_3_px	ground_force_3_py	ground_force_3_pz	ground_moment_3_mx	ground_moment_3_my	ground_moment_3_mz	ground_force_4_vx	ground_force_4_vy	ground_force_4_vz	ground_force_4_px	ground_force_4_py	ground_force_4_pz	ground_moment_4_mx	ground_moment_4_my	ground_moment_4_mz
      1.84000000	      0.00000000	     -0.00000000	      0.00000000	      0.00000000	      0.00000000	      0.00000000	      0.00000000	      0.00000000	      0.00000000	    -19.53710175	      7.25784779	   -748.84344482	   -267.72067603	  -1073.16265855	      0.00000000	      0.00000000	      0.00000000	    464.05392130	      0.00000000	     -0.00000000	      0.00000000	      0.00000000	      0.00000000	      0.00000000	      0.00000000	      0.00000000	      0.00000000	    -34.63283015	     16.25823896	     76.00547791	    603.72416698	   -563.63541592	      0.00000000	      0.00000000	     -0.00000000	   -124.97705182
      1.85000000	      0.00000000	     -0.00000000	      0.00000000	      0.00000000	      0.00000000	      0.00000000	      0.00000000	      0.00000000	      0.00000000	    -20.45407104	      8.54300499	   -743.85046387	   -266.96028225	  -1074.77031661	      0.00000000	      0.00000000	      0.00000000	    463.02806305	      0.00000000	     -0.00000000	      0.00000000	      0.00000000	      0.00000000	      0.00000000	      0.00000000	      0.00000000	      0.00000000	    -34.74848036	     15.87347525	     75.10375977	    606.48058488	   -564.43737053	      0.00000000	      0.00000000	     -0.00000000	    -64.57322511
      1.86000000	      0.00000000	     -0.00000000	      0.00000000	      0.00000000	      0.00000000	      0.00000000	      0.00000000	      0.00000000	      0.00000000	    -21.01522064	     11.29341412	   -737.59191895	   -265.28388461	  -1075.69905813	      0.00000000	      0.00000000	      0.00000000	    596.29466009	      0.00000000	     -0.00000000	      0.00000000	      0.00000000	      0.00000000	      0.00000000	      0.00000000	      0.00000000	      0.00000000	    -35.01692820	     16.30889436	     75.30301666	    608.54967567	   -563.32315249	      0.00000000	      0.00000000	     -0.00000000	   -245.51607918
      1.87000000	      0.00000000	     -0.00000000	      0.00000000	      0.00000000	      0.00000000	      0.00000000	      0.00000000	      0.00000000	      0.00000000	    -21.70245361	     14.94962978	   -728.66656494	   -263.86278212	  -1075.57779349	      0.00000000	      0.00000000	     -0.00000000	    475.50975963	      0.00000000	     -0.00000000	      0.00000000	      0.00000000	      0.00000000	      0.00000000	      0.00000000	      0.00000000	      0.00000000	    -35.15717937	     16.20658991	     75.15077209	    604.32391176	   -564.62921013	      0.00000000	      0.00000000	     -0.00000000	    -30.44057503
      1.88000000	      0.00000000	     -0.00000000	      0.00000000	      0.00000000	      0.00000000	      0.00000000	      0.00000000	      0.00000000	      0.00000000	    -22.57965088	     15.26788139	   -720.99310303	   -263.02221422	  -1074.93574774	      0.00000000	      0.00000000	      0.00000000	    492.56635837	      0.00000000	     -0.00000000	      0.00000000	      0.00000000	      0.00000000	      0.00000000	      0.00000000	      0.00000000	      0.00000000	    -34.81117489	     16.11646766	     76.46115112	    598.30914829	   -561.64094700	      0.00000000	      0.00000000	     -0.00000000	    -15.41215886
      1.89000000	      0.00000000	     -0.00000000	      0.00000000	      0.00000000	      0.00000000	      0.00000000	      0.00000000	      0.00000000	      0.00000000	    -21.00619698	     14.41540432	   -716.55511475	   -263.45310948	  -1075.04412490	      0.00000000	      0.00000000	      0.00000000	    888.85830800	      0.00000000	     -0.00000000	      0.00000000	      0.00000000	      0.00000000	      0.00000000	      0.00000000	      0.00000000	      0.00000000	    -34.87333157	     16.14366646	     74.75280762	    608.09095218	   -565.03304385	      0.00000000	      0.00000000	     -0.00000000	   -131.73101917
      1.90000000	      0.00000000	     -0.00000000	      0.00000000	      0.00000000	      0.00000000	      0.00000000	      0.00000000	      0.00000000	      0.00000000	    -18.49007607	     13.28042984	   -714.19012451	   -264.13156668	  -1074.60524253	      0.00000000	      0.00000000	     -0.00000000	    911.36562404	      0.00000000	     -0.00000000	      0.00000000	      0.00000000	      0.00000000	      0.00000000	      0.00000000	      0.00000000	      0.00000000	    -34.83828214	     15.96378822	     75.30195618	    604.60988193	   -562.18497493	      0.00000000	      0.00000000	      0.00000000	     17.12037173
      1.91000000	      0.00000000	     -0.00000000	      0.00000000	      0.00000000	      0.00000000	      0.00000000	      0.00000000	      0.00000000	      0.00000000	    -16.36833572	     12.64893150	   -713.13208008	   -264.98570587	  -1073.26888359	      0.00000000	      0.00000000	      0.00000000	   1131.92000780	      0.00000000	     -0.00000000	      0.00000000	      0.00000000	      0.00000000	      0.00000000	      0.00000000	      0.00000000	      0.00000000	    -34.56998302	     16.20603482	     75.71596527	    606.13820585	   -565.89372059	      0.00000000	      0.00000000	     -0.00000000	   -102.97458990
      1.92000000	      0.00000000	     -0.00000000	      0.00000000	      0.00000000	      0.00000000	      0.00000000	      0.00000000	      0.00000000	      0.00000000	    -14.33995438	     12.15611076	   -705.11865234	   -266.41039608	  -1071.97763356	      0.00000000	      0.00000000	      0.00000000	   1348.12291277	      0.00000000	     -0.00000000	      0.00000000	      0.00000000	      0.00000000	      0.00000000	      0.00000000	      0.00000000	      0.00000000	    -35.10162593	     16.24520418	     75.45471191	    609.11911146	   -565.25718008	      0.00000000	      0.00000000	      0.00000000	   -128.45148264
      1.93000000	      0.00000000	     -0.00000000	      0.00000000	      0.00000000	      0.00000000	      0.00000000	      0.00000000	      0.00000000	      0.00000000	    -11.79844666	     12.50089550	   -693.35668945	   -268.05391852	  -1069.86311391	      0.00000000	      0.00000000	      0.00000000	   1622.50275786	      0.00000000	     -0.00000000	      0.00000000	      0.00000000	      0.00000000	      0.00000000	      0.00000000	      0.00000000	      0.00000000	    -34.69872523	     16.23960608	     76.28797913	    601.23514957	   -560.07575702	      0.00000000	      0.00000000	     -0.00000000	   -194.75264945
      1.94000000	      0.00000000	     -0.00000000	      0.00000000	      0.00000000	      0.00000000	      0.00000000	      0.00000000	      0.00000000	      0.00000000	     -8.69787884	      9.76536751	   -677.61944580	   -270.48362002	  -1067.23381595	      0.00000000	     -0.00000000	      0.00000000	   1906.81949454	      0.00000000	     -0.00000000	      0.00000000	      0.00000000	      0.00000000	      0.00000000	      0.00000000	      0.00000000	      0.00000000	    -34.83856441	     16.16617507	     74.59894562	    607.45959951	   -565.55534182	      0.00000000	      0.00000000	     -0.00000000	    -67.65915713
